<?xml version="1.0" standalone="no"?>
<!DOCTYPE svg PUBLIC "-//W3C//DTD SVG 20010904//EN"
 "http://www.w3.org/TR/2001/REC-SVG-20010904/DTD/svg10.dtd">
<svg version="1.0" xmlns="http://www.w3.org/2000/svg"
 width="1000.000000pt" height="1000.000000pt" viewBox="0 0 1000.000000 1000.000000"
 preserveAspectRatio="xMidYMid meet">
<metadata>
Created by potrace 1.14, written by Peter Selinger 2001-2017
</metadata>
<g transform="translate(0.000000,1000.000000) scale(0.100000,-0.100000)"
fill="#000000" stroke="none">
<path d="M2115 9343 c-437 -37 -769 -191 -983 -457 -170 -210 -250 -434 -257
-716 -6 -287 85 -547 269 -765 104 -124 204 -212 451 -400 123 -94 142 -109
184 -145 107 -91 162 -157 199 -240 39 -86 51 -149 48 -240 -9 -218 -159 -354
-446 -404 -83 -14 -342 -15 -400 -2 -14 4 -41 9 -60 12 -156 24 -360 95 -560
193 -74 36 -138 68 -142 69 -5 2 -8 -163 -8 -367 l0 -370 67 -40 c154 -91 377
-161 593 -186 30 -3 72 -8 94 -11 58 -8 342 -8 416 0 36 4 88 9 115 12 79 9
263 50 350 80 354 119 626 365 744 674 50 131 72 249 76 420 8 356 -97 622
-350 876 -111 112 -152 145 -340 274 -312 214 -394 301 -435 460 -32 123 -14
267 45 359 57 91 182 173 305 201 56 13 208 17 290 8 130 -16 306 -58 405 -98
11 -5 52 -20 90 -35 39 -15 85 -34 103 -42 19 -9 37 -12 41 -7 9 9 291 611
291 620 0 2 -42 25 -92 50 -288 141 -605 214 -947 218 -69 1 -139 0 -156 -1z"/>
<path d="M4146 9273 c-3 -10 -12 -49 -20 -88 -17 -84 -116 -552 -122 -577 -11
-50 -32 -152 -39 -189 -3 -13 -14 -67 -25 -119 -29 -133 -61 -280 -66 -310 -3
-14 -11 -53 -19 -88 -8 -34 -17 -77 -20 -95 -4 -17 -11 -52 -16 -77 -6 -25
-13 -58 -16 -75 -2 -16 -13 -67 -24 -112 -10 -44 -21 -95 -24 -113 -3 -17 -21
-102 -40 -188 -18 -87 -36 -169 -39 -183 -2 -13 -9 -46 -15 -74 -5 -27 -21
-103 -35 -168 -14 -65 -28 -133 -31 -150 -3 -18 -10 -48 -15 -67 -5 -19 -12
-49 -15 -67 -3 -18 -25 -124 -49 -236 -24 -112 -47 -221 -50 -241 -4 -21 -8
-41 -10 -45 -2 -3 -7 -22 -10 -41 -3 -19 -12 -64 -20 -100 -8 -36 -18 -80 -21
-98 -3 -19 -14 -71 -24 -115 -11 -45 -22 -95 -24 -112 -3 -16 -15 -73 -26
-125 -12 -52 -21 -95 -21 -97 0 -2 186 -3 414 -3 l414 0 6 33 c3 17 8 41 10
52 6 24 46 213 51 235 2 8 19 92 39 185 19 94 53 258 76 365 54 253 66 312 74
355 2 11 12 57 22 103 l17 82 66 0 c135 0 418 9 466 15 142 16 242 34 348 60
499 126 853 420 1003 834 27 74 59 216 70 306 19 160 6 412 -28 540 -5 22 -11
47 -13 55 -5 27 -52 145 -75 191 -147 289 -463 484 -865 534 -27 4 -61 9 -75
12 -14 3 -284 8 -602 10 -552 5 -576 4 -582 -14z m1060 -691 c136 -27 249
-105 298 -206 45 -92 56 -146 56 -266 1 -194 -54 -336 -181 -462 -112 -112
-257 -182 -439 -213 -52 -8 -327 -18 -344 -12 -12 5 -11 17 5 84 17 74 21 95
34 165 3 16 12 58 21 95 9 38 18 82 21 98 2 17 11 55 18 85 7 30 16 69 18 85
3 17 10 50 15 75 6 25 13 56 16 70 2 14 23 112 45 218 23 106 41 195 41 198 0
11 309 0 376 -14z"/>
<path d="M7271 9183 c-12 -59 -37 -180 -56 -268 -19 -88 -36 -171 -39 -185 -2
-14 -11 -55 -20 -93 -9 -37 -18 -79 -21 -95 -7 -41 -8 -45 -75 -357 -107 -507
-129 -609 -134 -635 -2 -14 -11 -57 -20 -95 -8 -39 -17 -83 -20 -98 -14 -66
-18 -85 -42 -195 -14 -64 -27 -126 -30 -137 -2 -11 -6 -31 -9 -45 -3 -14 -8
-36 -10 -50 -3 -14 -10 -47 -16 -75 -6 -27 -12 -59 -14 -70 -2 -11 -15 -74
-29 -140 -15 -66 -28 -129 -30 -140 -3 -11 -12 -54 -21 -95 -9 -41 -18 -91
-21 -110 -3 -19 -8 -38 -10 -41 -2 -4 -13 -53 -25 -110 -22 -112 -26 -130 -34
-169 -3 -14 -7 -34 -9 -45 -3 -11 -29 -135 -59 -275 -30 -140 -58 -274 -62
-298 l-7 -42 413 2 413 3 8 35 c4 19 10 49 13 65 4 17 17 82 31 145 14 63 38
178 54 255 16 77 65 311 110 520 92 428 88 408 96 455 4 19 10 37 14 40 14 9
311 3 319 -6 4 -5 15 -29 24 -54 45 -125 319 -868 326 -885 5 -11 46 -121 91
-245 45 -124 91 -249 102 -277 l19 -53 451 0 c356 0 449 3 445 13 -11 28 -219
524 -232 552 -7 17 -91 215 -185 440 -95 226 -197 468 -227 539 -54 126 -59
156 -28 156 26 0 236 103 306 150 234 158 391 362 473 614 32 97 39 130 55
261 8 68 6 290 -3 350 -3 17 -7 48 -11 70 -28 176 -124 368 -247 495 -116 121
-331 236 -513 275 -53 12 -129 25 -170 31 -22 3 -53 8 -70 11 -16 3 -303 8
-636 10 l-605 4 -23 -108z m1118 -606 c224 -55 322 -188 322 -434 -1 -284
-130 -469 -391 -562 -108 -38 -203 -51 -389 -52 -189 -1 -180 -2 -176 19 2 9
11 53 20 97 9 44 18 87 20 95 13 64 124 584 130 610 2 8 11 51 20 95 9 44 21
97 26 118 l10 39 167 -3 c118 -3 189 -9 241 -22z"/>
<path d="M8457 4674 c-1 -1 -40 -4 -87 -8 -47 -3 -112 -10 -145 -16 -33 -5
-80 -13 -105 -16 -25 -3 -48 -8 -51 -10 -4 -2 -24 -6 -45 -10 -67 -10 -258
-72 -361 -116 -553 -236 -953 -657 -1186 -1248 -40 -101 -99 -284 -111 -344
-3 -12 -14 -61 -25 -111 -11 -49 -22 -106 -25 -125 -21 -149 -25 -184 -33
-290 -45 -621 84 -1093 384 -1397 217 -220 485 -339 858 -382 76 -9 492 -7
584 3 24 2 74 7 110 10 36 4 77 8 91 11 14 2 45 7 70 10 25 3 59 8 75 10 17 3
57 10 90 16 95 16 476 119 532 143 0 1 3 15 6 31 3 17 17 86 32 155 15 69 29
136 31 150 3 14 7 33 10 42 3 10 8 30 10 45 6 34 112 532 205 967 39 181 73
339 75 351 2 12 19 91 37 176 l33 154 -763 0 c-419 -1 -764 -3 -766 -5 -2 -3
-21 -86 -41 -185 -21 -99 -39 -187 -41 -195 -6 -27 -37 -164 -51 -225 -7 -33
-13 -67 -14 -76 0 -14 38 -16 355 -16 195 0 357 -2 359 -4 4 -4 -14 -88 -69
-334 -8 -38 -18 -83 -21 -100 -3 -16 -11 -55 -19 -85 -8 -30 -24 -100 -35
-155 -12 -55 -23 -107 -26 -117 -10 -35 -284 -80 -482 -79 -104 0 -135 3 -227
23 -313 65 -485 267 -540 633 -25 168 -11 492 30 710 16 82 75 282 100 340 7
17 26 59 41 95 105 242 284 472 479 618 123 91 349 193 480 217 274 48 500 37
735 -38 101 -32 300 -115 353 -147 18 -11 36 -20 40 -20 4 0 21 28 36 63 16
34 41 89 56 122 53 115 217 470 221 482 3 6 -27 26 -73 48 -256 121 -525 194
-808 221 -62 6 -362 13 -368 8z"/>
<path d="M1110 4610 c-6 -4 -23 -69 -36 -139 -1 -7 -7 -34 -13 -60 -6 -25 -13
-57 -15 -71 -3 -14 -8 -36 -11 -50 -6 -25 -22 -104 -31 -150 -3 -14 -10 -45
-15 -70 -6 -25 -13 -56 -15 -70 -3 -14 -16 -77 -30 -140 -14 -63 -27 -124 -29
-135 -3 -11 -11 -51 -19 -90 -9 -38 -18 -81 -20 -95 -3 -14 -7 -35 -10 -47
-10 -38 -53 -240 -62 -293 -5 -23 -19 -87 -30 -135 -3 -11 -8 -33 -10 -50 -3
-16 -14 -67 -25 -112 -10 -44 -21 -94 -24 -110 -2 -15 -7 -37 -9 -48 -3 -11
-16 -74 -30 -140 -14 -66 -57 -268 -96 -450 -39 -181 -82 -382 -95 -445 -23
-109 -69 -326 -81 -380 -3 -14 -6 -29 -8 -35 -2 -9 -13 -59 -21 -105 -2 -8 -8
-35 -14 -60 -5 -25 -12 -56 -14 -70 -3 -14 -24 -110 -46 -214 -23 -107 -37
-192 -32 -195 7 -5 788 -7 812 -2 6 1 12 25 25 93 12 58 107 503 119 553 8 33
16 71 19 85 7 35 24 121 30 145 3 11 16 74 30 140 33 159 82 389 95 445 5 25
12 56 15 70 3 20 48 231 61 290 29 130 37 169 41 190 3 14 30 140 60 281 30
140 56 264 58 275 3 10 18 84 35 164 18 80 34 156 36 170 3 14 7 38 10 54 4
16 8 33 10 36 2 4 6 20 9 36 3 16 17 85 32 154 14 69 28 136 30 150 3 14 18
84 34 155 16 72 36 164 44 205 9 41 25 117 36 169 11 52 18 97 14 100 -6 7
-803 8 -814 1z"/>
<path d="M2800 4585 c-5 -16 -13 -55 -19 -85 -5 -30 -20 -100 -31 -155 -12
-55 -24 -111 -26 -124 -3 -14 -20 -95 -39 -181 -19 -86 -36 -167 -39 -181 -2
-13 -12 -58 -21 -99 -9 -41 -18 -86 -21 -100 -5 -27 -55 -264 -128 -606 -25
-116 -47 -222 -50 -235 -2 -13 -9 -44 -15 -69 -5 -25 -12 -56 -14 -70 -3 -14
-28 -135 -57 -270 -48 -228 -65 -305 -74 -355 -3 -11 -20 -94 -40 -185 -19
-91 -37 -176 -40 -190 -2 -14 -11 -55 -20 -93 -9 -37 -18 -80 -21 -96 -3 -16
-16 -82 -30 -146 -14 -63 -28 -132 -31 -153 -3 -20 -8 -40 -10 -43 -2 -3 -6
-20 -9 -37 -3 -17 -16 -81 -29 -144 -14 -62 -27 -124 -30 -138 -10 -49 -16
-76 -27 -122 -6 -26 -9 -51 -6 -55 5 -8 733 -11 740 -3 3 4 52 230 73 340 3
13 12 56 20 95 19 88 92 439 98 468 3 12 12 56 21 97 9 41 18 84 21 95 2 11 6
29 8 40 2 11 12 56 21 100 9 44 18 87 20 95 4 17 53 253 59 285 3 11 18 83 35
161 16 77 33 156 36 175 3 19 14 79 25 134 11 55 26 141 35 190 8 50 17 99 19
110 2 11 7 42 10 68 4 27 9 57 11 67 2 9 6 35 9 56 4 22 11 64 16 94 5 30 12
78 16 105 3 28 7 52 9 55 2 3 6 32 10 65 9 89 10 95 20 98 5 1 47 -115 93
-258 199 -616 276 -858 314 -975 21 -69 43 -136 48 -150 5 -14 50 -153 100
-310 50 -157 98 -303 105 -325 8 -22 48 -148 90 -280 42 -132 85 -265 95 -295
10 -30 43 -134 74 -230 l56 -175 464 0 464 0 13 60 c15 74 14 68 30 140 7 33
14 67 15 75 4 22 17 83 20 95 1 6 21 96 43 200 22 105 56 267 76 360 20 94 39
181 41 195 3 14 12 54 20 90 8 36 17 81 20 100 3 19 9 51 14 70 5 19 12 51 15
70 3 19 10 51 15 70 5 19 16 69 24 110 8 41 45 215 81 385 37 171 69 321 71
335 7 40 83 399 99 470 18 80 104 485 110 522 3 16 12 56 20 90 8 35 16 74 19
88 9 50 68 327 81 382 9 42 10 58 1 60 -17 6 -724 3 -730 -3 -4 -4 -65 -278
-82 -369 -3 -14 -7 -32 -9 -40 -2 -8 -7 -31 -10 -50 -3 -19 -15 -73 -25 -120
-10 -47 -21 -100 -25 -117 -3 -18 -12 -63 -21 -100 -9 -38 -18 -77 -20 -88 -4
-20 -21 -102 -28 -140 -3 -11 -14 -65 -26 -120 -12 -55 -23 -111 -26 -125 -2
-14 -9 -45 -14 -70 -6 -25 -12 -54 -15 -65 -2 -11 -20 -96 -40 -190 -19 -93
-37 -179 -39 -190 -3 -11 -16 -76 -30 -145 -34 -161 -64 -312 -71 -353 -3 -17
-12 -63 -20 -102 -24 -121 -53 -279 -59 -315 -21 -135 -36 -213 -40 -218 -6
-6 -5 -9 -47 123 -17 55 -50 161 -74 235 -24 74 -68 214 -98 310 -51 161 -139
440 -222 700 -18 58 -54 173 -80 255 -68 220 -172 548 -203 640 -14 44 -27 85
-28 90 -2 11 -75 245 -135 430 -21 66 -39 125 -39 130 0 7 -168 10 -485 10
l-485 0 -10 -30z"/>
</g>
</svg>
