<?xml version="1.0" encoding="UTF-8" standalone="no"?>
<!-- Created with Inkscape (http://www.inkscape.org/) -->

<svg
   width="69.652679mm"
   height="21.661861mm"
   viewBox="0 0 69.652678 21.661861"
   version="1.1"
   id="svg5"
   inkscape:version="1.2.1 (8a69933317, 2022-10-28, custom)"
   sodipodi:docname="spring_logo2.svg"
   xmlns:inkscape="http://www.inkscape.org/namespaces/inkscape"
   xmlns:sodipodi="http://sodipodi.sourceforge.net/DTD/sodipodi-0.dtd"
   xmlns="http://www.w3.org/2000/svg"
   xmlns:svg="http://www.w3.org/2000/svg">
  <sodipodi:namedview
     id="namedview7"
     pagecolor="#ffffff"
     bordercolor="#999999"
     borderopacity="1"
     inkscape:showpageshadow="0"
     inkscape:pageopacity="0"
     inkscape:pagecheckerboard="0"
     inkscape:deskcolor="#d1d1d1"
     inkscape:document-units="mm"
     showgrid="false"
     inkscape:zoom="3.7498892"
     inkscape:cx="154.93791"
     inkscape:cy="40.401194"
     inkscape:window-width="1920"
     inkscape:window-height="1078"
     inkscape:window-x="0"
     inkscape:window-y="0"
     inkscape:window-maximized="1"
     inkscape:current-layer="layer1"
     showguides="true">
    <sodipodi:guide
       position="0.041352878,7.9736797"
       orientation="1,0"
       id="guide3482"
       inkscape:locked="false" />
    <sodipodi:guide
       position="69.470068,20.674055"
       orientation="1,0"
       id="guide3484"
       inkscape:locked="false" />
  </sodipodi:namedview>
  <defs
     id="defs2" />
  <g
     inkscape:label="Layer 1"
     inkscape:groupmode="layer"
     id="layer1"
     transform="translate(-20.276299,-81.863981)"
     style="fill:#ffb300;fill-opacity:1">
    <g
       aria-label="SPRING"
       id="text113"
       style="font-size:19.7556px;font-family:'Open Sans';-inkscape-font-specification:'Open Sans';letter-spacing:0.264583px;stroke-width:0.264583;fill:#ffb300;fill-opacity:1">
      <path
         d="m 29.10775,92.021524 q 0,2.016074 -1.42765,3.192922 -1.427651,1.1672 -3.868162,1.1672 -2.13183,0 -3.434079,-0.868166 v -2.643083 q 1.861733,1.041799 3.453371,1.041799 1.080385,0 1.688101,-0.405144 0.607716,-0.41479 0.607716,-1.128615 0,-0.414791 -0.135048,-0.723472 -0.125402,-0.318328 -0.366559,-0.588424 -0.241157,-0.270096 -1.19614,-0.983921 -1.331188,-0.954983 -1.87138,-1.890673 -0.540192,-0.93569 -0.540192,-2.016074 0,-1.244372 0.59807,-2.218647 0.59807,-0.983921 1.697747,-1.524113 1.109323,-0.549839 2.54662,-0.549839 2.093245,0 3.829577,0.954983 l -1.051446,2.247585 q -1.504821,-0.713825 -2.778131,-0.713825 -0.800642,0 -1.311895,0.434083 -0.511254,0.434083 -0.511254,1.147908 0,0.588424 0.318328,1.032153 0.318327,0.434083 1.427651,1.157555 1.167201,0.771703 1.745978,1.707393 0.578777,0.926044 0.578777,2.170415 z"
         style="font-style:italic;font-weight:bold;-inkscape-font-specification:'Open Sans Bold Italic';fill:#ffb300;fill-opacity:1"
         id="path8419" />
      <path
         d="m 35.74853,88.722493 h 0.540192 q 1.369773,0 2.151123,-0.665594 0.790995,-0.665594 0.790995,-1.784563 0,-1.736332 -1.881026,-1.736332 h -0.713825 z m 6.443721,-2.527328 q 0,2.324756 -1.639869,3.655944 -1.630223,1.321541 -4.504817,1.321541 h -0.829581 l -1.051445,5.016071 h -2.942118 l 2.980703,-14.102875 h 3.260446 q 2.334401,0 3.530541,1.032153 1.19614,1.022507 1.19614,3.077166 z"
         style="font-style:italic;font-weight:bold;-inkscape-font-specification:'Open Sans Bold Italic';fill:#ffb300;fill-opacity:1"
         id="path8421" />
      <path
         d="m 47.550075,88.346288 h 0.752411 q 1.263664,0 1.967843,-0.549839 0.704179,-0.549838 0.704179,-1.678454 0,-0.790996 -0.463022,-1.186494 -0.453376,-0.395497 -1.437297,-0.395497 h -0.713826 z m -0.511253,2.430865 -1.147909,5.411568 h -2.942118 l 2.980704,-14.102875 h 3.463017 q 2.286171,0 3.434079,0.983922 1.147909,0.983921 1.147909,2.88424 0,1.524114 -0.800642,2.623791 -0.800642,1.09003 -2.305463,1.620576 l 2.517681,5.990346 H 50.183512 L 48.18673,90.777153 Z"
         style="font-style:italic;font-weight:bold;-inkscape-font-specification:'Open Sans Bold Italic';fill:#ffb300;fill-opacity:1"
         id="path8423" />
      <path
         d="m 55.242302,96.188721 3.009642,-14.102875 h 2.942118 L 58.18442,96.188721 Z"
         style="font-style:italic;font-weight:bold;-inkscape-font-specification:'Open Sans Bold Italic';fill:#ffb300;fill-opacity:1"
         id="path8425" />
      <path
         d="M 73.381458,96.188721 H 70.082427 L 66.648348,85.519925 h -0.05788 l -0.03858,0.308681 q -0.308681,2.083599 -0.636655,3.723468 l -1.398712,6.636647 h -2.652729 l 2.980703,-14.102875 h 3.443725 l 3.279738,10.389053 h 0.03859 q 0.115755,-0.733118 0.376205,-2.093244 0.26045,-1.360127 1.736332,-8.295809 h 2.643083 z"
         style="font-style:italic;font-weight:bold;-inkscape-font-specification:'Open Sans Bold Italic';fill:#ffb300;fill-opacity:1"
         id="path8427" />
      <path
         d="m 83.803583,88.269117 h 5.430861 l -1.562699,7.350473 q -1.292603,0.443729 -2.401926,0.59807 -1.099677,0.163986 -2.334402,0.163986 -2.498389,0 -3.858516,-1.418004 -1.360126,-1.418004 -1.360126,-4.070734 0,-2.585205 1.032153,-4.668804 1.032152,-2.093245 2.903533,-3.22186 1.87138,-1.138263 4.321537,-1.138263 2.102891,0 3.954979,0.954983 l -1.109324,2.421219 q -0.713825,-0.385852 -1.42765,-0.617363 -0.713826,-0.231511 -1.553053,-0.231511 -1.475882,0 -2.643083,0.800642 -1.157555,0.800642 -1.823149,2.286171 -0.655947,1.475882 -0.655947,3.183275 0,1.659162 0.694532,2.440511 0.704179,0.771703 2.151123,0.771703 0.733118,0 1.639869,-0.231511 l 0.636655,-2.88424 h -2.575559 z"
         style="font-style:italic;font-weight:bold;-inkscape-font-specification:'Open Sans Bold Italic';fill:#ffb300;fill-opacity:1"
         id="path8429" />
    </g>
    <g
       aria-label="Dataset &amp; Benchmark"
       id="text3285"
       style="font-style:italic;font-weight:bold;font-size:7.70719px;font-family:'Open Sans';-inkscape-font-specification:'Open Sans Bold Italic';letter-spacing:-0.240849px;stroke-width:0.240849;fill:#ffb300;fill-opacity:1">
      <path
         d="m 24.844917,100.15018 q 0,0.98222 -0.395144,1.73487 -0.395144,0.75266 -1.128983,1.15909 -0.733839,0.40644 -1.719817,0.40644 h -1.324674 l 1.162853,-5.501913 h 1.28704 q 1.038665,0 1.576813,0.564491 0.541912,0.560728 0.541912,1.637022 z m -3.202548,2.7472 q 0.760182,0 1.335963,-0.34246 0.575781,-0.34622 0.880607,-0.97469 0.308588,-0.62847 0.308588,-1.43757 0,-0.809108 -0.387617,-1.223068 -0.387618,-0.417724 -1.13651,-0.417724 h -0.669863 l -0.940819,4.395512 z"
         style="font-weight:normal;-inkscape-font-specification:'Open Sans Italic';fill:#ffb300;fill-opacity:1"
         id="path8432" />
      <path
         d="m 27.249651,99.25076 q 0.346222,0 0.617178,0.188164 0.270956,0.184401 0.421487,0.534385 h 0.0414 l 0.252139,-0.647283 h 0.477936 l -0.876843,4.124554 h -0.500516 l 0.09784,-0.78653 h -0.03011 q -0.673626,0.86179 -1.418755,0.86179 -0.523095,0 -0.820394,-0.37256 -0.297299,-0.37257 -0.297299,-1.01985 0,-0.78276 0.267192,-1.45262 0.267193,-0.66987 0.737603,-1.049959 0.470409,-0.380091 1.031137,-0.380091 z m -0.715022,3.75199 q 0.365038,0 0.726312,-0.34622 0.361275,-0.34999 0.587071,-0.90695 0.225797,-0.56073 0.225797,-1.12146 0,-0.38762 -0.210744,-0.61718 -0.210743,-0.229558 -0.553201,-0.229558 -0.391381,0 -0.730076,0.323638 -0.334931,0.32365 -0.526859,0.87685 -0.191927,0.5532 -0.191927,1.16661 0,0.42902 0.176874,0.64352 0.176874,0.21075 0.496753,0.21075 z"
         style="font-weight:normal;-inkscape-font-specification:'Open Sans Italic';fill:#ffb300;fill-opacity:1"
         id="path8434" />
      <path
         d="m 30.444674,103.01027 q 0.20698,0 0.541911,-0.0978 v 0.48546 q -0.127951,0.0527 -0.316115,0.0903 -0.188164,0.0376 -0.301062,0.0376 -0.470409,0 -0.722549,-0.22203 -0.248376,-0.2258 -0.248376,-0.66986 0,-0.24838 0.06774,-0.5645 l 0.477936,-2.265488 h -0.647284 l 0.05269,-0.274719 0.696206,-0.293536 0.47041,-0.858027 h 0.368801 l -0.20698,0.948346 h 1.031138 l -0.09785,0.477936 h -1.027374 l -0.485463,2.273018 q -0.06774,0.32741 -0.06774,0.49675 0,0.21075 0.109135,0.32365 0.109135,0.11289 0.304826,0.11289 z"
         style="font-weight:normal;-inkscape-font-specification:'Open Sans Italic';fill:#ffb300;fill-opacity:1"
         id="path8436" />
      <path
         d="m 33.62088,99.25076 q 0.346222,0 0.617177,0.188164 0.270956,0.184401 0.421487,0.534385 h 0.0414 l 0.25214,-0.647283 h 0.477936 l -0.876843,4.124554 h -0.500516 l 0.09784,-0.78653 h -0.03011 q -0.673627,0.86179 -1.418755,0.86179 -0.523096,0 -0.820395,-0.37256 -0.297298,-0.37257 -0.297298,-1.01985 0,-0.78276 0.267192,-1.45262 0.267193,-0.66987 0.737602,-1.049959 0.47041,-0.380091 1.031138,-0.380091 z m -0.715022,3.75199 q 0.365037,0 0.726312,-0.34622 0.361274,-0.34999 0.587071,-0.90695 0.225797,-0.56073 0.225797,-1.12146 0,-0.38762 -0.210744,-0.61718 -0.210743,-0.229558 -0.553201,-0.229558 -0.391381,0 -0.730076,0.323638 -0.334932,0.32365 -0.526859,0.87685 -0.191927,0.5532 -0.191927,1.16661 0,0.42902 0.176874,0.64352 0.176874,0.21075 0.496753,0.21075 z"
         style="font-weight:normal;-inkscape-font-specification:'Open Sans Italic';fill:#ffb300;fill-opacity:1"
         id="path8438" />
      <path
         d="m 38.095416,102.2802 q 0,0.58707 -0.417724,0.91824 -0.41396,0.3274 -1.170379,0.3274 -0.635994,0 -1.147799,-0.25966 v -0.5946 q 0.263429,0.15806 0.568255,0.24461 0.304825,0.0866 0.564491,0.0866 0.474173,0 0.715023,-0.18817 0.240849,-0.18816 0.240849,-0.4817 0,-0.2145 -0.131714,-0.36127 -0.131715,-0.14677 -0.568255,-0.40267 -0.489226,-0.27472 -0.692443,-0.53815 -0.203217,-0.26343 -0.203217,-0.6247 0,-0.519336 0.380091,-0.835451 0.380091,-0.319879 1.001032,-0.319879 0.64352,0 1.241881,0.278483 l -0.203217,0.515567 -0.210744,-0.09408 q -0.380091,-0.161821 -0.82792,-0.161821 -0.349985,0 -0.549439,0.165584 -0.199453,0.161817 -0.199453,0.421487 0,0.21074 0.131714,0.36127 0.135478,0.15054 0.553202,0.38762 0.40267,0.2258 0.575781,0.38762 0.176874,0.16182 0.263429,0.34998 0.08656,0.1844 0.08656,0.41773 z"
         style="font-weight:normal;-inkscape-font-specification:'Open Sans Italic';fill:#ffb300;fill-opacity:1"
         id="path8440" />
      <path
         d="m 40.240484,103.52584 q -0.692443,0 -1.087587,-0.41019 -0.395144,-0.4102 -0.395144,-1.13651 0,-0.7075 0.278483,-1.35478 0.282246,-0.651051 0.745129,-1.012325 0.462883,-0.361275 1.019847,-0.361275 0.575782,0 0.865554,0.25214 0.289772,0.248376 0.289772,0.69621 0,0.67739 -0.624704,1.065 -0.624703,0.38386 -1.787556,0.38386 H 39.42009 l -0.01505,0.30106 q 0,0.49299 0.22956,0.77147 0.233323,0.27472 0.718786,0.27472 0.237086,0 0.485462,-0.0677 0.25214,-0.0677 0.624704,-0.24837 v 0.54943 q -0.353748,0.16559 -0.624704,0.22956 -0.270956,0.0677 -0.598361,0.0677 z m 0.523096,-3.736931 q -0.387618,0 -0.730076,0.353751 -0.338695,0.35374 -0.519332,0.98221 h 0.04516 q 0.858027,0 1.313384,-0.22203 0.459119,-0.2258 0.459119,-0.65105 0,-0.19945 -0.139241,-0.331166 -0.135478,-0.131715 -0.429013,-0.131715 z"
         style="font-weight:normal;-inkscape-font-specification:'Open Sans Italic';fill:#ffb300;fill-opacity:1"
         id="path8442" />
      <path
         d="m 43.435507,103.01027 q 0.20698,0 0.541912,-0.0978 v 0.48546 q -0.127952,0.0527 -0.316115,0.0903 -0.188164,0.0376 -0.301063,0.0376 -0.470409,0 -0.722549,-0.22203 -0.248376,-0.2258 -0.248376,-0.66986 0,-0.24838 0.06774,-0.5645 l 0.477936,-2.265488 h -0.647283 l 0.05269,-0.274719 0.696206,-0.293536 0.470409,-0.858027 h 0.368801 l -0.20698,0.948346 h 1.031138 l -0.09784,0.477936 h -1.027375 l -0.485462,2.273018 q -0.06774,0.32741 -0.06774,0.49675 0,0.21075 0.109135,0.32365 0.109135,0.11289 0.304825,0.11289 z"
         style="font-weight:normal;-inkscape-font-specification:'Open Sans Italic';fill:#ffb300;fill-opacity:1"
         id="path8444" />
      <path
         d="m 48.741728,98.37768 q -0.395144,0 -0.613414,0.225797 -0.21827,0.225796 -0.21827,0.639757 0,0.451593 0.308588,0.884366 0.523096,-0.267189 0.718786,-0.413957 0.19569,-0.146767 0.312352,-0.319878 0.116662,-0.173111 0.116662,-0.391381 0,-0.289772 -0.161821,-0.455356 -0.158058,-0.169348 -0.462883,-0.169348 z m -1.001032,4.62507 q 0.327405,0 0.632231,-0.12419 0.304825,-0.12419 0.733839,-0.46665 l -1.151563,-1.6295 q -0.481699,0.25214 -0.692443,0.43654 -0.210743,0.1844 -0.323642,0.40644 -0.109135,0.21827 -0.109135,0.49299 0,0.3989 0.248377,0.64352 0.252139,0.24085 0.662336,0.24085 z m -1.524127,-0.83921 q 0,-0.55697 0.338695,-0.96717 0.338695,-0.41396 1.140273,-0.79781 -0.387618,-0.620941 -0.387618,-1.162853 0,-0.617177 0.398908,-0.993505 0.398907,-0.380091 1.05748,-0.380091 0.560729,0 0.888134,0.297299 0.331168,0.297299 0.331168,0.797815 0,0.293535 -0.124188,0.515569 -0.120425,0.222033 -0.327405,0.406433 -0.20698,0.184403 -0.4817,0.338693 -0.270955,0.1543 -0.575781,0.31235 l 1.046191,1.46392 q 0.477936,-0.41396 0.748892,-1.11017 h 0.63223 q -0.380091,0.88814 -1.065007,1.55047 l 0.763945,1.01609 h -0.756418 l -0.440304,-0.62471 q -0.451593,0.37633 -0.865553,0.53815 -0.413961,0.16182 -0.929529,0.16182 -0.632231,0 -1.012322,-0.36127 -0.380091,-0.36128 -0.380091,-1.00103 z"
         style="font-weight:normal;-inkscape-font-specification:'Open Sans Italic';fill:#ffb300;fill-opacity:1"
         id="path8446" />
      <path
         d="m 55.549496,97.948667 q 1.625736,0 1.625736,1.264461 0,0.530622 -0.327405,0.895662 -0.327405,0.36504 -0.922003,0.47417 v 0.0376 q 0.432777,0.12043 0.662337,0.41773 0.233323,0.29353 0.233323,0.70749 0,0.79782 -0.572018,1.25317 -0.572018,0.4516 -1.531654,0.4516 h -1.742397 l 1.162853,-5.501913 z m -1.264461,2.355813 h 0.933293 q 0.587071,0 0.937056,-0.27472 0.349984,-0.274721 0.349984,-0.748893 0,-0.391381 -0.252139,-0.583308 -0.248376,-0.195691 -0.786525,-0.195691 h -0.794051 z m -0.553201,2.60042 h 1.001031 q 0.681153,0 1.046191,-0.30106 0.365038,-0.30483 0.365038,-0.85803 0,-0.43654 -0.282246,-0.6661 -0.278482,-0.23332 -0.805341,-0.23332 h -0.888133 z"
         style="font-weight:normal;-inkscape-font-specification:'Open Sans Italic';fill:#ffb300;fill-opacity:1"
         id="path8448" />
      <path
         d="m 58.872469,103.52584 q -0.692443,0 -1.087587,-0.41019 -0.395144,-0.4102 -0.395144,-1.13651 0,-0.7075 0.278483,-1.35478 0.282245,-0.651051 0.745128,-1.012325 0.462883,-0.361275 1.019848,-0.361275 0.575781,0 0.865554,0.25214 0.289772,0.248376 0.289772,0.69621 0,0.67739 -0.624704,1.065 -0.624704,0.38386 -1.787556,0.38386 h -0.124188 l -0.01505,0.30106 q 0,0.49299 0.229559,0.77147 0.233324,0.27472 0.718786,0.27472 0.237087,0 0.485463,-0.0677 0.252139,-0.0677 0.624704,-0.24837 v 0.54943 q -0.353748,0.16559 -0.624704,0.22956 -0.270956,0.0677 -0.598361,0.0677 z m 0.523095,-3.736931 q -0.387617,0 -0.730075,0.353751 -0.338695,0.35374 -0.519332,0.98221 h 0.04516 q 0.858027,0 1.313383,-0.22203 0.45912,-0.2258 0.45912,-0.65105 0,-0.19945 -0.139241,-0.331166 -0.135478,-0.131715 -0.429014,-0.131715 z"
         style="font-weight:normal;-inkscape-font-specification:'Open Sans Italic';fill:#ffb300;fill-opacity:1"
         id="path8450" />
      <path
         d="m 63.324424,103.45058 0.556965,-2.60419 q 0.07527,-0.39138 0.07527,-0.54191 0,-0.23709 -0.135477,-0.380093 -0.131715,-0.143005 -0.425251,-0.143005 -0.334931,0 -0.65481,0.225798 -0.316115,0.2258 -0.560728,0.64352 -0.24085,0.41772 -0.365038,1.01232 l -0.380091,1.78756 h -0.63223 l 0.880607,-4.124554 h 0.523095 l -0.08279,0.763944 h 0.03763 q 0.361274,-0.459119 0.696206,-0.647283 0.338695,-0.191927 0.699969,-0.191927 0.477936,0 0.752655,0.26343 0.278483,0.259666 0.278483,0.73008 0,0.29729 -0.08656,0.67739 l -0.538149,2.52892 z"
         style="font-weight:normal;-inkscape-font-specification:'Open Sans Italic';fill:#ffb300;fill-opacity:1"
         id="path8452" />
      <path
         d="m 66.692557,103.52584 q -0.730075,0 -1.132746,-0.40267 -0.40267,-0.40267 -0.40267,-1.13651 0,-0.75265 0.278482,-1.38865 0.278483,-0.63599 0.767709,-0.989738 0.492989,-0.357512 1.106403,-0.357512 0.515569,0 1.008558,0.191927 l -0.176874,0.530622 q -0.451593,-0.191927 -0.824158,-0.191927 -0.421487,0 -0.771471,0.289768 -0.346222,0.28601 -0.545675,0.80158 -0.195691,0.51181 -0.195691,1.11393 0,0.4817 0.248376,0.74889 0.25214,0.2672 0.692443,0.2672 0.270956,0 0.511806,-0.0753 0.24085,-0.0753 0.474173,-0.17687 v 0.53815 q -0.466647,0.23708 -1.038665,0.23708 z"
         style="font-weight:normal;-inkscape-font-specification:'Open Sans Italic';fill:#ffb300;fill-opacity:1"
         id="path8454" />
      <path
         d="m 70.760661,103.45058 0.556965,-2.60419 q 0.06774,-0.35375 0.06774,-0.50804 0,-0.556968 -0.553201,-0.556968 -0.334932,0 -0.65481,0.222038 -0.316116,0.22203 -0.560729,0.64728 -0.240849,0.42149 -0.365037,1.01985 l -0.380091,1.78003 h -0.632231 l 1.241881,-5.855661 h 0.632231 q -0.06774,0.308588 -0.131715,0.598361 -0.06021,0.289772 -0.127951,0.590834 -0.06398,0.297299 -0.143005,0.624704 -0.07527,0.327405 -0.176874,0.711262 h 0.0414 q 0.353748,-0.462886 0.696206,-0.662339 0.346222,-0.199454 0.72255,-0.199454 0.492989,0 0.760181,0.270956 0.270956,0.270956 0.270956,0.767707 0,0.23332 -0.08655,0.62471 -0.146768,0.72631 -0.545675,2.52892 z"
         style="font-weight:normal;-inkscape-font-specification:'Open Sans Italic';fill:#ffb300;fill-opacity:1"
         id="path8456" />
      <path
         d="m 74.843817,103.45058 0.556965,-2.60419 q 0.06774,-0.35375 0.06774,-0.50804 0,-0.26343 -0.116661,-0.4102 -0.116662,-0.146768 -0.398908,-0.146768 -0.316115,0 -0.617177,0.225798 -0.297299,0.2258 -0.526859,0.64728 -0.225796,0.41773 -0.349984,1.00856 l -0.380091,1.78756 H 72.44661 l 0.880607,-4.124554 h 0.523095 l -0.08279,0.763944 h 0.03763 q 0.327405,-0.447829 0.651047,-0.643519 0.327405,-0.195691 0.673626,-0.195691 0.425251,0 0.65481,0.244613 0.22956,0.244613 0.270956,0.681157 h 0.03011 q 0.323641,-0.470413 0.688679,-0.69621 0.365038,-0.22956 0.737602,-0.22956 0.477936,0 0.737602,0.255903 0.26343,0.255903 0.26343,0.745127 0,0.2559 -0.08279,0.66987 l -0.541912,2.52892 h -0.639757 l 0.556965,-2.60419 q 0.07527,-0.39138 0.07527,-0.54944 0,-0.23332 -0.131714,-0.372563 -0.127952,-0.143005 -0.406434,-0.143005 -0.304826,0 -0.602124,0.21827 -0.297299,0.218268 -0.523096,0.620938 -0.222033,0.39891 -0.338695,0.94835 l -0.40267,1.88164 z"
         style="font-weight:normal;-inkscape-font-specification:'Open Sans Italic';fill:#ffb300;fill-opacity:1"
         id="path8458" />
      <path
         d="m 81.109672,99.25076 q 0.346222,0 0.617178,0.188164 0.270956,0.184401 0.421487,0.534385 h 0.0414 l 0.252139,-0.647283 h 0.477936 l -0.876843,4.124554 h -0.500516 l 0.09784,-0.78653 h -0.03011 q -0.673626,0.86179 -1.418755,0.86179 -0.523095,0 -0.820394,-0.37256 -0.297299,-0.37257 -0.297299,-1.01985 0,-0.78276 0.267193,-1.45262 0.267192,-0.66987 0.737602,-1.049959 0.470409,-0.380091 1.031137,-0.380091 z m -0.715022,3.75199 q 0.365038,0 0.726312,-0.34622 0.361275,-0.34999 0.587071,-0.90695 0.225797,-0.56073 0.225797,-1.12146 0,-0.38762 -0.210743,-0.61718 -0.210744,-0.229558 -0.553202,-0.229558 -0.391381,0 -0.730076,0.323638 -0.334931,0.32365 -0.526858,0.87685 -0.191927,0.5532 -0.191927,1.16661 0,0.42902 0.176874,0.64352 0.176873,0.21075 0.496752,0.21075 z"
         style="font-weight:normal;-inkscape-font-specification:'Open Sans Italic';fill:#ffb300;fill-opacity:1"
         id="path8460" />
      <path
         d="m 85.648185,99.25076 q 0.259666,0 0.451593,0.05269 L 85.9643,99.867938 q -0.199454,-0.04892 -0.395144,-0.04892 -0.342458,0 -0.64352,0.225795 -0.297299,0.2258 -0.523096,0.62847 -0.222033,0.39891 -0.327405,0.88813 l -0.40267,1.88917 h -0.632231 l 0.880607,-4.124554 h 0.523095 l -0.08279,0.763944 h 0.03763 q 0.270956,-0.35751 0.44783,-0.511805 0.176874,-0.158057 0.368801,-0.240849 0.19569,-0.08656 0.432777,-0.08656 z"
         style="font-weight:normal;-inkscape-font-specification:'Open Sans Italic';fill:#ffb300;fill-opacity:1"
         id="path8462" />
      <path
         d="m 86.871251,101.34691 1.979483,-2.020884 h 0.756419 l -1.764977,1.757454 1.110167,2.3671 H 88.24861 l -0.88437,-1.97196 -0.572018,0.46288 -0.308589,1.50908 h -0.639757 l 1.241882,-5.855661 h 0.639757 q -0.270956,1.264461 -0.485463,2.265492 -0.214507,1.001029 -0.383854,1.486499 z"
         style="font-weight:normal;-inkscape-font-specification:'Open Sans Italic';fill:#ffb300;fill-opacity:1"
         id="path8464" />
    </g>
  </g>
</svg>
